PathFileType   4   (X/Y/Z)
DataRate	CameraRate	NumFrames	NumMarkers	Units	OrigDataRate	OrigDataStartFrame	OrigNumFrames
120.0	120.0	12	37	mm	120.0	152	173
Frame#	Time	midhip	hip_r	hip_l	knee_r	knee_l	ankle_r	ankle_l	midasis	asis_r	asis_l	psis_r	psis_l	epicondLat_r	epicondLat_l	epicondMed_r	epicondMed_l	malleolusLat_r	malleolusLat_l	malleolusMedv_r	malleolusMedv_l	neck	subclavicle_r	subclavicle_l	sternalnotch	xyphoidprocess	thighwand_r	thighwand_l	upperleg1_r	upperleg1_l	upperleg2_r	upperleg2_l	shankwand_r	shankwand_l	lowerleg1_r	lowerleg1_l	toe_r	toe_l
 	 	X1	Y1	Z1	X2	Y2	Z2	X3	Y3	Z3	X4	Y4	Z4	X5	Y5	Z5	X6	Y6	Z6	X7	Y7	Z7	X8	Y8	Z8	X9	Y9	Z9	X10	Y10	Z10	X11	Y11	Z11	X12	Y12	Z12	X13	Y13	Z13	X14	Y14	Z14	X15	Y15	Z15	X16	Y16	Z16	X17	Y17	Z17	X18	Y18	Z18	X19	Y19	Z19	X20	Y20	Z20	X21	Y21	Z21	X22	Y22	Z22	X23	Y23	Z23	X24	Y24	Z24	X25	Y25	Z25	X26	Y26	Z26	X27	Y27	Z27	X28	Y28	Z28	X29	Y29	Z29	X30	Y30	Z30	X31	Y31	Z31	X32	Y32	Z32	X33	Y33	Z33	X34	Y34	Z34	X35	Y35	Z35	X36	Y36	Z36	X37	Y37	Z37

	152	1.49167	-828.134	611.740	248.141	-821.386	623.105	302.336	-826.884	625.942	185.054	-691.977	348.638	312.904	-882.065	333.863	213.331	-598.125	71.533	322.092	-966.642	56.494	221.092	-783.573	688.978	243.353	-779.368	686.808	333.060	-787.778	691.148	153.646	-919.586	698.880	299.505	-919.367	697.450	211.331	-698.849	347.148	358.363	-882.228	329.269	165.552	-691.565	344.262	268.307	-883.443	339.400	250.755	-607.258	69.507	354.259	-974.300	57.946	189.541	-592.684	79.669	295.872	-971.305	58.012	255.068	-837.105	1018.010	247.665	-751.690	938.714	289.457	-757.029	937.661	199.592	-766.627	953.118	252.863	-742.663	813.218	247.874	-622.504	480.451	303.481	-799.956	397.145	103.660	-710.885	494.246	340.235	-797.219	458.559	178.995	-685.276	410.373	342.159	-817.680	378.840	202.305	-619.429	153.080	422.443	-847.399	136.187	245.888	-645.751	212.657	360.460	-888.722	204.356	220.020	-514.834	95.018	339.650	-885.523	36.465	223.309
	153	1.50000	-822.623	610.905	248.595	-815.458	622.158	302.686	-821.765	625.223	185.451	-686.116	347.631	312.426	-879.833	333.726	213.334	-586.733	72.434	321.615	-966.420	56.883	221.129	-778.050	688.145	243.571	-773.225	685.800	333.251	-782.874	690.490	153.892	-913.977	698.061	300.950	-914.094	696.579	212.594	-692.402	346.286	357.974	-880.446	329.277	165.545	-686.606	342.921	267.583	-881.623	339.882	250.833	-595.594	70.310	353.852	-974.141	58.410	189.597	-581.458	80.867	295.377	-971.016	58.400	255.121	-831.319	1017.121	249.014	-745.864	937.450	290.230	-751.589	936.707	200.412	-760.958	952.010	253.798	-737.306	812.072	248.207	-616.832	479.180	301.720	-798.037	396.431	103.257	-704.771	493.085	339.419	-793.713	457.829	178.687	-679.337	409.174	341.224	-815.543	378.059	202.080	-608.950	153.892	422.017	-846.532	135.885	245.674	-636.754	212.889	360.119	-887.871	204.178	219.739	-503.385	97.233	338.846	-885.408	36.481	223.345
	154	1.50833	-817.023	610.052	249.025	-809.449	621.194	303.022	-816.572	624.488	185.839	-680.174	346.588	312.045	-877.535	333.607	213.329	-576.098	73.094	321.019	-966.213	57.289	221.152	-772.457	687.300	243.777	-767.008	684.780	333.426	-777.907	689.820	154.129	-908.221	697.190	302.274	-908.719	695.697	213.845	-685.891	345.396	357.673	-878.644	329.322	165.534	-681.367	341.564	267.165	-878.655	340.075	250.918	-584.706	70.878	353.318	-974.000	58.896	189.640	-571.000	81.804	294.756	-970.745	58.824	255.124	-825.461	1016.077	250.328	-739.978	936.194	291.087	-746.040	935.702	201.284	-755.256	950.902	254.749	-731.753	810.918	248.692	-611.037	477.974	300.053	-796.191	395.737	102.825	-698.555	491.994	338.711	-789.944	457.226	178.314	-673.182	408.037	340.500	-812.672	377.515	201.560	-599.041	154.437	421.543	-845.664	135.613	245.432	-628.192	212.929	359.740	-887.503	204.143	219.245	-492.671	99.011	337.970	-885.285	36.503	223.384
	155	1.51667	-811.361	609.183	249.409	-803.353	620.214	303.349	-811.297	623.734	186.226	-674.129	345.530	311.739	-875.142	333.501	213.317	-566.244	73.476	320.332	-965.997	57.718	221.155	-766.790	686.442	243.975	-760.712	683.749	333.588	-772.869	689.135	154.362	-902.295	696.249	303.483	-903.240	694.817	215.087	-679.304	344.491	357.435	-876.777	329.399	165.521	-675.857	340.245	267.024	-876.855	339.981	251.207	-574.624	71.175	352.685	-973.849	59.410	189.663	-561.359	82.470	294.030	-970.450	59.315	255.099	-819.578	1014.966	251.765	-734.083	934.941	292.064	-740.415	934.671	202.226	-749.530	949.805	255.710	-726.100	809.760	249.317	-605.113	476.858	298.498	-794.351	395.069	102.380	-692.183	491.010	338.108	-787.415	456.123	177.823	-666.795	407.015	339.968	-810.798	376.639	201.399	-589.719	154.697	421.027	-844.787	135.364	245.163	-620.101	212.728	359.441	-886.939	204.273	218.976	-482.719	100.269	336.995	-885.153	36.530	223.421
	156	1.52500	-805.521	608.277	249.725	-797.167	619.224	303.677	-805.937	622.961	186.620	-667.958	344.486	311.478	-872.643	333.405	213.299	-557.194	73.556	319.587	-965.743	58.186	221.130	-761.040	685.573	244.172	-754.329	682.713	333.747	-767.751	688.432	154.597	-896.194	695.246	304.593	-897.656	693.956	216.325	-672.627	343.590	357.232	-874.807	329.500	165.507	-670.016	338.939	267.164	-875.114	340.130	251.369	-565.370	71.183	351.987	-973.656	59.967	189.659	-552.474	82.833	293.238	-970.121	59.897	255.070	-813.656	1013.906	253.366	-728.088	933.729	293.006	-734.876	933.706	203.176	-743.731	948.719	256.709	-720.452	808.655	249.871	-599.055	475.852	297.064	-792.433	394.436	101.938	-685.670	490.104	337.586	-784.659	455.226	177.331	-660.175	406.108	339.625	-808.921	375.831	201.206	-580.986	154.666	420.472	-843.891	135.128	244.872	-612.342	212.347	359.102	-885.629	204.363	218.805	-473.562	100.940	335.898	-885.012	36.560	223.450
	157	1.53333	-799.493	607.349	250.001	-790.887	618.228	304.016	-800.488	622.174	187.030	-661.640	343.483	311.234	-870.055	333.319	213.273	-548.971	73.309	318.815	-965.422	58.712	221.076	-755.194	684.690	244.375	-747.846	681.670	333.910	-762.543	687.711	154.840	-889.926	694.198	305.637	-891.966	693.131	217.572	-665.843	342.709	357.035	-872.717	329.619	165.490	-663.933	337.839	267.243	-870.649	339.222	251.644	-556.966	70.885	351.257	-973.387	60.584	189.623	-544.603	82.791	292.313	-969.778	60.524	255.047	-807.675	1012.889	254.979	-722.384	932.538	293.727	-729.645	932.851	203.981	-737.828	947.650	257.768	-715.357	807.594	250.139	-592.859	474.962	295.756	-790.358	393.840	101.516	-679.179	489.291	337.113	-781.658	454.388	176.810	-653.503	405.374	339.288	-805.175	375.632	200.505	-572.827	154.344	419.879	-842.966	134.898	244.571	-604.938	211.801	358.582	-883.936	204.457	218.584	-465.232	100.973	334.661	-884.861	36.594	223.468
	158	1.54167	-793.371	606.421	250.300	-784.508	617.232	304.375	-794.951	621.378	187.468	-655.162	342.539	310.982	-867.391	333.239	213.239	-541.599	72.712	318.035	-965.014	59.309	220.991	-749.242	683.794	244.592	-741.248	680.620	334.087	-757.236	686.968	155.097	-883.514	693.140	306.668	-886.166	692.351	218.838	-658.944	341.861	356.821	-870.500	329.748	165.467	-657.661	336.953	267.177	-872.216	341.257	250.750	-549.423	70.268	350.517	-973.022	61.273	189.555	-537.613	82.275	291.422	-969.414	61.180	254.984	-801.560	1011.946	256.575	-716.558	931.351	294.518	-724.214	931.979	204.846	-731.817	946.604	258.888	-710.149	806.525	250.515	-586.524	474.184	294.581	-788.066	393.277	101.127	-672.591	488.544	336.765	-778.431	453.483	176.306	-646.705	404.740	338.926	-805.126	374.773	200.365	-565.216	153.732	419.244	-841.998	134.665	244.273	-597.870	211.112	358.030	-882.494	204.548	218.431	-457.756	100.335	333.284	-884.700	36.630	223.475
	159	1.55000	-787.242	605.516	250.675	-778.025	616.235	304.758	-789.318	620.576	187.938	-648.523	341.661	310.706	-864.676	333.164	213.200	-535.093	71.747	317.253	-964.519	59.985	220.880	-743.170	682.882	244.828	-734.522	679.558	334.281	-751.817	686.205	155.375	-876.958	692.092	307.713	-880.250	691.615	220.131	-651.934	341.046	356.575	-868.158	329.879	165.439	-651.169	336.056	267.184	-865.898	339.332	251.385	-542.747	69.320	349.777	-972.560	62.041	189.458	-531.133	81.292	290.744	-968.936	61.956	254.877	-795.333	1011.079	258.291	-709.943	930.178	295.783	-717.898	931.071	206.126	-725.695	945.583	260.068	-703.638	805.486	251.381	-580.050	473.504	293.548	-785.524	392.735	100.780	-665.615	487.767	336.615	-774.991	452.618	175.848	-639.545	404.015	338.665	-800.083	374.257	199.743	-558.129	152.823	418.562	-840.980	134.421	243.987	-591.060	210.267	357.541	-881.276	204.613	218.286	-451.144	99.016	331.779	-884.529	36.667	223.474
	160	1.55833	-781.074	604.623	251.118	-771.438	615.238	305.166	-783.596	619.770	188.440	-641.734	340.839	310.398	-861.910	333.090	213.159	-529.448	70.420	316.463	-963.946	60.736	220.747	-736.976	681.950	245.082	-727.663	678.478	334.492	-746.288	685.421	155.672	-870.283	691.090	308.818	-874.207	690.913	221.453	-644.830	340.250	356.289	-865.692	330.006	165.408	-644.518	335.285	266.968	-862.230	339.063	251.552	-536.929	68.045	349.030	-972.013	62.883	189.337	-525.482	79.926	289.979	-968.356	62.848	254.765	-789.067	1010.276	260.142	-703.317	929.033	297.086	-711.542	930.233	207.454	-719.457	944.586	261.315	-697.123	804.496	252.236	-573.444	472.897	292.671	-782.731	392.200	100.480	-658.512	487.043	336.452	-771.359	451.860	175.472	-632.304	403.267	338.302	-796.583	373.815	199.434	-551.542	151.615	417.825	-839.903	134.160	243.713	-584.538	209.247	357.011	-879.835	204.708	218.077	-445.378	97.023	330.176	-884.346	36.708	223.467
	161	1.56667	-774.864	603.739	251.625	-764.747	614.234	305.593	-777.784	618.957	188.970	-634.826	340.056	310.057	-859.079	333.014	213.121	-524.621	68.777	315.650	-963.313	61.552	220.596	-730.659	680.994	245.351	-720.669	677.375	334.715	-740.648	684.614	155.986	-863.476	690.135	309.975	-868.030	690.230	222.799	-637.670	339.456	355.965	-863.099	330.124	165.377	-637.607	334.698	266.458	-860.842	339.733	251.256	-531.921	66.484	348.264	-971.401	63.793	189.198	-520.752	78.155	289.090	-967.797	63.780	254.630	-782.779	1009.457	261.942	-696.897	927.915	298.216	-705.542	929.487	208.631	-713.103	943.614	262.630	-691.061	803.553	252.834	-566.714	472.336	291.966	-779.711	391.658	100.229	-651.527	486.356	336.217	-767.503	451.127	175.219	-625.114	402.598	337.807	-794.515	372.794	199.455	-545.433	150.128	417.027	-838.762	133.877	243.449	-578.276	208.052	356.372	-878.079	204.826	217.879	-440.382	94.394	328.522	-884.147	36.754	223.456
	162	1.57500	-768.446	602.820	252.081	-757.951	613.224	306.040	-771.876	618.137	189.527	-627.844	339.299	309.690	-856.126	332.931	213.098	-520.517	66.913	314.805	-962.636	62.428	220.433	-724.219	680.017	245.633	-713.544	676.250	334.950	-734.894	683.783	156.315	-856.549	689.231	311.181	-861.714	689.554	224.162	-630.504	338.648	355.609	-860.347	330.233	165.360	-630.440	334.202	265.909	-855.334	338.550	251.557	-527.632	64.723	347.467	-970.741	64.768	189.047	-516.813	75.933	288.219	-967.250	64.721	254.473	-776.463	1008.553	263.706	-690.417	926.807	299.422	-699.455	928.780	209.855	-706.670	942.676	263.999	-684.821	802.646	253.450	-559.871	471.795	291.453	-776.499	391.099	100.027	-644.493	485.664	336.082	-763.480	450.293	175.072	-617.811	401.969	337.353	-789.645	372.511	198.992	-539.762	148.413	416.168	-837.551	133.571	243.195	-572.314	206.610	355.725	-876.138	204.938	217.756	-436.027	91.202	326.881	-883.926	36.808	223.443
	163	1.58333	-761.956	601.892	252.553	-751.050	612.212	306.503	-765.855	617.308	190.106	-620.841	338.576	309.308	-852.973	332.842	213.109	-517.003	64.962	313.925	-961.921	63.365	220.259	-717.654	679.023	245.929	-706.299	675.115	335.198	-729.009	682.931	156.660	-849.496	688.362	312.389	-855.267	688.887	225.533	-623.390	337.834	355.231	-857.390	330.335	165.378	-623.225	333.745	265.350	-853.654	339.214	251.387	-523.925	62.887	346.636	-970.038	65.814	188.884	-513.798	73.244	287.303	-966.657	65.664	254.314	-770.113	1007.615	265.628	-683.829	925.767	300.703	-693.221	928.098	211.122	-700.207	941.779	265.399	-678.311	801.800	254.175	-552.935	471.269	291.144	-773.125	390.523	99.876	-637.322	484.972	336.027	-759.209	449.393	175.019	-610.472	401.319	336.952	-787.244	371.466	199.135	-534.459	146.565	415.254	-836.262	133.251	242.952	-566.793	204.825	355.108	-874.125	204.974	217.684	-432.144	87.555	325.307	-883.676	36.873	223.426
